<?xml version="1.0" encoding="utf-8"?>
<!-- Generator: Adobe Illustrator 21.0.0, SVG Export Plug-In . SVG Version: 6.00 Build 0)  -->
<svg version="1.1" id="WHITE_LOGO" xmlns="http://www.w3.org/2000/svg" xmlns:xlink="http://www.w3.org/1999/xlink" x="0px" y="0px"
	 viewBox="0 0 631.2 158.6" style="enable-background:new 0 0 631.2 158.6;" xml:space="preserve">
<g id="iwelcome_lettergroup">
	<path id="iwelcome_letter_W" d="M251.6,119.3c-1.3,3.7-2.9,4.8-5.3,4.8h-12.1c-3.2,0-4.6-2.4-5.5-4.7l-6.3-19.9l-6.8,19.8
		c-1.6,3.7-2.9,4.8-5.3,4.8h-9.5c-3.2,0-4.6-2.4-5.5-4.7l-17.2-52.3c-0.9-2.2,0.1-3.2,2.9-3.2h12.7c2,0,3.6,1.8,4.3,3.7l10.8,36.6
		l6.8-22.5l-4.9-14.6c-0.9-2.2,0.1-3.2,2.9-3.2h12.7c2,0,3.6,1.8,4.3,3.7l10.8,36.6l11.1-36.6c0.6-1.8,2.4-3.7,4.1-3.7h9.7
		c3.2,0,3.6,1,2.6,3.5L251.6,119.3z"/>
	<path id="iwelcome_letter_E" d="M320.7,99h-31.6c0,8,5.5,12.5,15.3,12.5c6,0,12.1-0.6,18-1.8c2-0.4,3.2,0.3,3.2,1.8v8.3
		c0,2.6-0.8,3.6-3.7,4.3c-6.5,0.9-13,1.5-19.6,1.6c-24.2,0-32.4-12-32.4-31.2c0-22.3,9.1-32.5,29.2-32.5c18.6,0,27.3,9.2,27.3,23
		v8.7C326.6,97.5,326.3,99,320.7,99z M298.9,73.7c-6.8,0-9.2,6-9.3,11.2c0,1.6-0.1,2.7,1.5,2.7h15.1c1.1,0,1.2-1,1.2-2.6
		C307.3,79.1,305.7,73.7,298.9,73.7z"/>
	<path id="iwelcome_letter_L" d="M349.1,124.1H337c-3.2,0-3.7-0.6-3.7-3.8V44c0-1.9,0.8-3.1,3-3.1h12c3.8,0,4,1.2,4,3.7v74.9
		C352.4,122.4,352.4,124.1,349.1,124.1z"/>
	<path id="iwelcome_letter_C" d="M388.7,125.6c-20.8,0-29.8-8.1-29.8-31C358.9,70.5,369,62,389,62c10.9,0,17.9,2.8,22.5,9.5
		c2,2.9-12.8,11.8-13.7,9.6c-1.6-3.5-3.9-6.5-9-6.5c-6,0-8.7,4.9-8.7,12.1v13.8c0,7.3,3.1,12.5,9,12.5c4.5,0,7.2-4,8.6-7.8
		c1-3.1,16,1.9,15,5C409.5,119.5,402.5,125.6,388.7,125.6z"/>
	<path id="iwelcome_letter_O" d="M446.7,125.6c-20.8,0-29.8-8.1-29.8-31C416.9,70.5,427,62,447,62c17.7,0,27.7,8.8,27.7,32.5
		C474.7,114.8,464.4,125.6,446.7,125.6z M455.1,86.5c0-6.2-1.7-11.9-8.7-11.9c-5.9,0-8.7,4.9-8.7,12.1v13.8c0,7.3,3.2,12.5,9.1,12.5
		s8.4-6.5,8.4-13.1L455.1,86.5L455.1,86.5z"/>
	<path id="iwelcome_letter_M" d="M564.8,124.1h-11.9c-3.7,0-4.3-1.6-4.3-4.4v-32c0-4.1-1.2-8.2-6.6-8.2c-4.9,0-6.9,3.7-7.7,7.3v31.5
		c0,3.4-0.9,5.8-3.5,5.8h-12.4c-2.4,0-3.7-1.6-3.7-4.4v-32c0-4.1-1.2-8.2-6.6-8.2c-5.9,0-7.8,4.9-7.8,8.8v30.5c0,2.9,0,5.3-3.2,5.3
		h-11.4c-3.5,0-4.5-1.9-4.5-4.8V67.9c0-2.2,0.8-4,3-4h12c2.4,0,4.1,0.6,4.1,5.7c4.4-4.6,8.6-7.1,16.5-7.1c6.3,0,12.3,2.6,15.6,9.6
		c4.9-6.4,9.7-9.6,18.4-9.6c8.5,0,17.6,4.9,17.6,19.3v36.5C568.4,121.7,567.5,124.1,564.8,124.1z"/>
	<path id="iwelcome_letter_E_1_" d="M625.5,99h-31.6c0,8,5.5,12.5,15.3,12.5c6,0,12.1-0.6,18-1.8c2-0.4,3.2,0.3,3.2,1.8v8.3
		c0,2.6-0.8,3.6-3.7,4.3c-6.5,0.9-13,1.5-19.6,1.6c-24.2,0-32.4-12-32.4-31.2c0-22.3,9.1-32.5,29.2-32.5c18.6,0,27.3,9.2,27.3,23
		v8.7C631.4,97.5,631.1,99,625.5,99z M603.7,73.7c-6.8,0-9.2,6-9.3,11.2c0,1.6-0.1,2.7,1.5,2.7H611c1.1,0,1.2-1,1.2-2.6
		C612.1,79.1,610.5,73.7,603.7,73.7z"/>
</g>
<path id="iwelcome_branding" d="M153.6,66.9L91.9,5.2c-6.9-6.9-18.1-6.9-25,0L5.2,66.9c-6.9,6.9-6.9,18.1,0,25l61.7,61.6
	c6.9,6.9,18.1,6.9,25,0l61.7-61.6C160.5,85,160.5,73.8,153.6,66.9z M90.8,112.8c0,6.4-5.1,11.5-11.5,11.5s-11.5-5.1-11.5-11.5V75.2
	c0-6.4,5.1-11.5,11.5-11.5s11.5,5.1,11.5,11.5V112.8z M79.4,57C73.1,57,68,51.9,68,45.6c0-6.3,5.1-11.4,11.4-11.4
	c6.3,0,11.4,5.1,11.4,11.4l0,0C90.8,51.9,85.7,57,79.4,57z"/>
</svg>
