<?xml version="1.0" encoding="utf-8"?>
<!-- Generator: Adobe Illustrator 21.0.0, SVG Export Plug-In . SVG Version: 6.00 Build 0)  -->
<svg version="1.1" id="FULLCOLOR_LOGO" xmlns="http://www.w3.org/2000/svg" xmlns:xlink="http://www.w3.org/1999/xlink" x="0px"
	 y="0px" viewBox="0 0 645 170" style="enable-background:new 0 0 645 170;" xml:space="preserve">
<style type="text/css">
	.st0{fill:url(#iwelcome_branding_1_);}
</style>
<g id="iwelcome_lettergroup">
	<path id="iwelcome_letter_W" d="M258.9,124.9c-1.3,3.7-2.9,4.8-5.3,4.8h-12.1c-3.2,0-4.6-2.4-5.5-4.7l-6.3-19.9l-6.8,19.8
		c-1.6,3.7-2.9,4.8-5.3,4.8h-9.5c-3.2,0-4.6-2.4-5.5-4.7l-17.2-52.3c-0.9-2.2,0.1-3.2,2.9-3.2H201c2,0,3.6,1.8,4.3,3.7l10.8,36.6
		l6.8-22.5L218,72.7c-0.9-2.2,0.1-3.2,2.9-3.2h12.7c2,0,3.6,1.8,4.3,3.7l10.8,36.6l11.1-36.6c0.6-1.8,2.4-3.7,4.1-3.7h9.7
		c3.2,0,3.6,1,2.6,3.5L258.9,124.9z"/>
	<path id="iwelcome_letter_E_1_" d="M328,104.6c-8.7,0-31.6,0-31.6,0c0,8,5.5,12.5,15.3,12.5c9.2,0,16.1-1.5,18-1.8
		c2-0.4,3.2,0.3,3.2,1.8v8.3c0,2.6-0.8,3.6-3.7,4.3c-1.7,0.4-13,1.6-19.6,1.6c-24.2,0-32.4-12-32.4-31.2c0-22.3,9.1-32.5,29.2-32.5
		c18.6,0,27.3,9.2,27.3,23v8.7C333.9,103.1,333.6,104.6,328,104.6z M306.2,79.3c-6.8,0-9.2,6-9.3,11.2c0,1.6-0.1,2.7,1.5,2.7h15.1
		c1.1,0,1.2-1,1.2-2.6C314.6,84.7,313,79.3,306.2,79.3z"/>
	<path id="iwelcome_letter_L" d="M356.4,129.7h-12.1c-3.2,0-3.7-0.6-3.7-3.8V49.6c0-1.9,0.8-3.1,3-3.1h12c3.8,0,4,1.2,4,3.7v74.9
		C359.7,128,359.7,129.7,356.4,129.7z"/>
	<path id="iwelcome_letter_C" d="M396,131.2c-20.8,0-29.8-8.1-29.8-31c0-24.1,10.1-32.6,30.1-32.6c10.9,0,17.9,2.8,22.5,9.5
		c2,2.9-12.8,11.8-13.7,9.6c-1.6-3.5-3.9-6.5-9-6.5c-6,0-8.7,4.9-8.7,12.1v13.8c0,7.3,3.1,12.5,9,12.5c4.5,0,7.2-4,8.6-7.8
		c1-3.1,16,1.9,15,5C416.8,125.1,409.8,131.2,396,131.2z"/>
	<path id="iwelcome_letter_O" d="M454,131.2c-20.8,0-29.8-8.1-29.8-31c0-24.1,10.1-32.6,30.1-32.6c17.7,0,27.7,8.8,27.7,32.5
		C482,120.4,471.7,131.2,454,131.2z M462.4,92.1c0-6.2-1.7-11.9-8.7-11.9c-5.9,0-8.7,4.9-8.7,12.1v13.8c0,7.3,3.2,12.5,9.1,12.5
		c6,0,8.4-6.5,8.4-13.1L462.4,92.1L462.4,92.1z"/>
	<path id="iwelcome_letter_M" d="M572.1,129.7h-11.9c-3.7,0-4.3-1.6-4.3-4.4v-32c0-4.1-1.2-8.2-6.6-8.2c-4.9,0-6.9,3.7-7.7,7.3v31.5
		c0,3.4-0.9,5.8-3.5,5.8h-12.4c-2.4,0-3.7-1.6-3.7-4.4v-32c0-4.1-1.2-8.2-6.6-8.2c-5.9,0-7.8,4.9-7.8,8.8v30.5c0,2.9,0,5.3-3.2,5.3
		H493c-3.5,0-4.5-1.9-4.5-4.8V73.5c0-2.2,0.8-4,3-4h12c2.4,0,4.1,0.6,4.1,5.7c4.4-4.6,8.6-7.1,16.5-7.1c6.3,0,12.3,2.6,15.6,9.6
		c4.9-6.4,9.7-9.6,18.4-9.6c8.5,0,17.6,4.9,17.6,19.3v36.5C575.7,127.3,574.8,129.7,572.1,129.7z"/>
	<path id="iwelcome_letter_E" d="M632.8,104.6c-8.7,0-31.6,0-31.6,0c0,8,5.5,12.5,15.3,12.5c9.2,0,16.1-1.5,18-1.8
		c2-0.4,3.2,0.3,3.2,1.8v8.3c0,2.6-0.8,3.6-3.7,4.3c-1.7,0.4-13,1.6-19.6,1.6c-24.2,0-32.4-12-32.4-31.2c0-22.3,9.1-32.5,29.2-32.5
		c18.6,0,27.3,9.2,27.3,23v8.7C638.7,103.1,638.4,104.6,632.8,104.6z M611,79.3c-6.8,0-9.2,6-9.3,11.2c0,1.6-0.1,2.7,1.5,2.7h15.1
		c1.1,0,1.2-1,1.2-2.6C619.4,84.7,617.8,79.3,611,79.3z"/>
</g>
<linearGradient id="iwelcome_branding_1_" gradientUnits="userSpaceOnUse" x1="7.325" y1="84.95" x2="166.075" y2="84.95">
	<stop  offset="0" style="stop-color:#80C342"/>
	<stop  offset="1" style="stop-color:#519032"/>
</linearGradient>
<path id="iwelcome_branding" class="st0" d="M160.9,72.5L99.2,10.8c-6.9-6.9-18.1-6.9-25,0L12.5,72.5c-6.9,6.9-6.9,18.1,0,25
	l61.7,61.6c6.9,6.9,18.1,6.9,25,0l61.7-61.6C167.8,90.6,167.8,79.4,160.9,72.5z M98.1,118.4c0,6.3-5.1,11.5-11.5,11.5
	c-6.3,0-11.5-5.1-11.5-11.5V80.8c0-6.3,5.1-11.5,11.5-11.5c6.3,0,11.5,5.1,11.5,11.5V118.4z M86.7,62.6c-6.3,0-11.4-5.1-11.4-11.4
	c0-6.3,5.1-11.4,11.4-11.4c6.3,0,11.4,5.1,11.4,11.4C98.1,57.5,93,62.6,86.7,62.6z"/>
</svg>
