<?xml version="1.0" encoding="utf-8"?>
<!-- Generator: Adobe Illustrator 21.0.2, SVG Export Plug-In . SVG Version: 6.00 Build 0)  -->
<svg version="1.1" id="WHITE_LOGO" xmlns="http://www.w3.org/2000/svg" xmlns:xlink="http://www.w3.org/1999/xlink" x="0px" y="0px"
	 viewBox="0 0 631.2 158.6" style="enable-background:new 0 0 631.2 158.6;" xml:space="preserve">
<style type="text/css">
	.st0{fill:#FFFFFF;}
</style>
<g id="iwelcome_lettergroup">
	<path id="iwelcome_letter_W" class="st0" d="M249.4,118.7c-1.3,3.6-2.9,4.7-5.2,4.7h-11.9c-3.2,0-4.5-2.4-5.4-4.6l-6.2-19.6
		l-6.7,19.5c-1.6,3.6-2.9,4.7-5.2,4.7h-9.4c-3.2,0-4.5-2.4-5.4-4.6l-17-51.6c-0.9-2.2,0.1-3.2,2.9-3.2h12.5c2,0,3.5,1.8,4.2,3.6
		l10.6,36.1l6.7-22.2l-4.8-14.4c-0.9-2.2,0.1-3.2,2.9-3.2h12.5c2,0,3.5,1.8,4.2,3.6l10.6,36.1l10.9-36.1c0.6-1.8,2.4-3.6,4-3.6h9.6
		c3.2,0,3.5,1,2.6,3.5L249.4,118.7z"/>
	<path id="iwelcome_letter_E" class="st0" d="M317.5,98.7h-31.1c0,7.9,5.4,12.3,15.1,12.3c5.9,0,11.9-0.6,17.7-1.8
		c2-0.4,3.2,0.3,3.2,1.8v8.2c0,2.6-0.8,3.5-3.6,4.2c-6.4,0.9-12.8,1.5-19.3,1.6c-23.9,0-31.9-11.8-31.9-30.8c0-22,9-32,28.8-32
		c18.3,0,26.9,9.1,26.9,22.7v8.6C323.3,97.2,323,98.7,317.5,98.7z M296,73.8c-6.7,0-9.1,5.9-9.2,11c0,1.6-0.1,2.7,1.5,2.7h14.9
		c1.1,0,1.2-1,1.2-2.6C304.3,79.1,302.7,73.8,296,73.8z"/>
	<path id="iwelcome_letter_L" class="st0" d="M345.5,123.5h-11.9c-3.2,0-3.6-0.6-3.6-3.7V44.5c0-1.9,0.8-3.1,3-3.1h11.8
		c3.7,0,3.9,1.2,3.9,3.6v73.8C348.8,121.8,348.8,123.5,345.5,123.5z"/>
	<path id="iwelcome_letter_C" class="st0" d="M384.6,124.9c-20.5,0-29.4-8-29.4-30.6c0-23.8,10-32.1,29.7-32.1
		c10.7,0,17.6,2.8,22.2,9.4c2,2.9-12.6,11.6-13.5,9.5c-1.6-3.5-3.8-6.4-8.9-6.4c-5.9,0-8.6,4.8-8.6,11.9v13.6
		c0,7.2,3.1,12.3,8.9,12.3c4.4,0,7.1-3.9,8.5-7.7c1-3.1,15.8,1.9,14.8,4.9C405.1,118.9,398.2,124.9,384.6,124.9z"/>
	<path id="iwelcome_letter_O" class="st0" d="M441.7,124.9c-20.5,0-29.4-8-29.4-30.6c0-23.8,10-32.1,29.7-32.1
		c17.4,0,27.3,8.7,27.3,32C469.3,114.3,459.2,124.9,441.7,124.9z M450,86.4c0-6.1-1.7-11.7-8.6-11.7c-5.8,0-8.6,4.8-8.6,11.9v13.6
		c0,7.2,3.2,12.3,9,12.3s8.3-6.4,8.3-12.9L450,86.4L450,86.4z"/>
	<path id="iwelcome_letter_M" class="st0" d="M558.1,123.5h-11.7c-3.6,0-4.2-1.6-4.2-4.3V87.6c0-4-1.2-8.1-6.5-8.1
		c-4.8,0-6.8,3.6-7.6,7.2v31.1c0,3.4-0.9,5.7-3.5,5.7h-12.2c-2.4,0-3.6-1.6-3.6-4.3V87.6c0-4-1.2-8.1-6.5-8.1
		c-5.8,0-7.7,4.8-7.7,8.7v30.1c0,2.9,0,5.2-3.2,5.2h-11.2c-3.5,0-4.4-1.9-4.4-4.7V68.1c0-2.2,0.8-3.9,3-3.9h11.8c2.4,0,4,0.6,4,5.6
		c4.3-4.5,8.5-7,16.3-7c6.2,0,12.1,2.6,15.4,9.5c4.8-6.3,9.6-9.5,18.1-9.5c8.4,0,17.3,4.8,17.3,19v36
		C561.7,121.1,560.8,123.5,558.1,123.5z"/>
	<path id="iwelcome_letter_E_1_" class="st0" d="M618,98.7h-31.1c0,7.9,5.4,12.3,15.1,12.3c5.9,0,11.9-0.6,17.7-1.8
		c2-0.4,3.2,0.3,3.2,1.8v8.2c0,2.6-0.8,3.5-3.6,4.2c-6.4,0.9-12.8,1.5-19.3,1.6c-23.9,0-31.9-11.8-31.9-30.8c0-22,9-32,28.8-32
		c18.3,0,26.9,9.1,26.9,22.7v8.6C623.8,97.2,623.5,98.7,618,98.7z M596.5,73.8c-6.7,0-9.1,5.9-9.2,11c0,1.6-0.1,2.7,1.5,2.7h14.9
		c1.1,0,1.2-1,1.2-2.6C604.8,79.1,603.2,73.8,596.5,73.8z"/>
</g>
<path id="iwelcome_branding" class="st0" d="M152.8,67.1L92,6.3c-6.8-6.8-17.8-6.8-24.6,0L6.5,67.1c-6.8,6.8-6.8,17.8,0,24.6
	l60.8,60.7c6.8,6.8,17.8,6.8,24.6,0l60.8-60.7C159.6,84.9,159.6,73.9,152.8,67.1z M90.9,112.3c0,6.3-5,11.3-11.3,11.3
	s-11.3-5-11.3-11.3V75.3c0-6.3,5-11.3,11.3-11.3s11.3,5,11.3,11.3V112.3z M79.7,57.3c-6.2,0-11.2-5-11.2-11.2s5-11.2,11.2-11.2
	s11.2,5,11.2,11.2l0,0C90.9,52.3,85.9,57.3,79.7,57.3z"/>
</svg>
