<?xml version="1.0" encoding="utf-8"?>
<!-- Generator: Adobe Illustrator 21.0.0, SVG Export Plug-In . SVG Version: 6.00 Build 0)  -->
<svg version="1.1" id="FULLCOLOR_LOGO" xmlns="http://www.w3.org/2000/svg" xmlns:xlink="http://www.w3.org/1999/xlink" x="0px"
	 y="0px" viewBox="0 0 170 170" style="enable-background:new 0 0 170 170;" xml:space="preserve">
<style type="text/css">
	.st0{fill:#FFFFFF;}
</style>
<path id="iwelcome_branding" class="st0" d="M160.9,72.5L99.2,10.8c-6.9-6.9-18.1-6.9-25,0L12.5,72.5c-6.9,6.9-6.9,18.1,0,25
	l61.7,61.6c6.9,6.9,18.1,6.9,25,0l61.7-61.6C167.8,90.6,167.8,79.4,160.9,72.5z M98.1,118.4c0,6.3-5.1,11.5-11.5,11.5
	c-6.3,0-11.5-5.1-11.5-11.5V80.8c0-6.3,5.1-11.5,11.5-11.5c6.3,0,11.5,5.1,11.5,11.5V118.4z M86.7,62.6c-6.3,0-11.4-5.1-11.4-11.4
	c0-6.3,5.1-11.4,11.4-11.4c6.3,0,11.4,5.1,11.4,11.4C98.1,57.5,93,62.6,86.7,62.6z"/>
</svg>
